<svg xmlns="http://www.w3.org/2000/svg" version="1.1" xmlns:xlink="http://www.w3.org/1999/xlink" xmlns:svgjs="http://svgjs.com/svgjs" width="1920" height="1080" preserveAspectRatio="none" viewBox="0 0 1920 1080"><g mask="url(&quot;#SvgjsMask2917&quot;)" fill="none"><rect width="1920" height="1080" x="0" y="0" fill="rgba(229, 9, 20, 1)"></rect><path d="M 0,275 C 76.8,222.8 230.4,13 384,14 C 537.6,15 614.4,278.8 768,280 C 921.6,281.2 998.4,-6.8 1152,20 C 1305.6,46.8 1382.4,375.8 1536,414 C 1689.6,452.2 1843.2,251.6 1920,211L1920 1080L0 1080z" fill="rgba(229, 9, 20, 1)"></path><path d="M 0,813 C 128,786.4 384,654 640,680 C 896,706 1024,929.6 1280,943 C 1536,956.4 1792,786.2 1920,747L1920 1080L0 1080z" fill="rgba(0, 0, 0, 1)"></path></g><defs><mask id="SvgjsMask2917"><rect width="1920" height="1080" fill="#ffffff"></rect></mask></defs></svg>